<?xml version="1.0" encoding="utf-8"?><svg xmlns="http://www.w3.org/2000/svg" version="1.1" baseProfile="tiny" width="800" height="600" viewBox="0 0 800 600"><g><g stroke="#000000" stroke-width=".98" fill="#FFFFFF"><path d="m138.69 290.2l-.43.47-.97 1.26-6.98-1.66-7.42 1.48-14.79 15.05-.64.36-15.33 8.91-1.35 7.77 15.22 8.47 16.03 3.62 14.7 16.34 17.41 9.77 7.68 11.98 11.95 4.57 6.47 11.45-7.44 9.84 24.27 16.1.72 14.63 32.18 35.92 12.72 5.33 35.02 26.01 5.44 9.37-4.96 8.59 30.11 17.45 10.84 15.67 29.08 26.96 8.22 19.09 34.45-.88-7.06-15.59 3.84-8.13-16.94-25.98-1.82-16.02-18.31-21.01-10.94-18.04 17.52-11.96 30.41 6.83 17.82 22.12 13.1 4.28 27.44 20.01 15.73 5.11 43.22 25.29 9.88-1.51-7.34-15.19 9.77-10.99-4.33-10.13 7.22-24.54 10.59 3.27 5.48-19.2-3.86-12.3 11.13-6.66 20.2 27.51 10.67 19.76 38.7 19.21 9.34 12.58-1.6 16.24 5.92 7.42 28.54 6.96 16.92-5.12 4.64-13.39-.57-17.71 5.42-10.59 3.25-23.47-.57-68.82 11.68-20.38-2.15-48.22 2.9-25.54 10.01-11.98-8.97-16.78-2.9-26.72 5.34-21.19 9.01-13.19-7.69-14.29 5.3-13.48-1.59-20.7-10.64-23.94-10.84-16.01 1.07-40.14-1.96-3.45-.38-.62-5.48-8.53-1.81-.52-13.12 6.8-8.35-11.87-14.28-2.88-11.43-39.05-25.97-18.85-9.46-13.05-11.84 1.35-4.65-13.36-16.41 4.59-3.62-17.36-15.43 18.53 2.35 11.01-11.97 18.22-11.94-4.22-7.36 5.42-10.66 21.16-5.65 2.27-13.14 31.96-.01.08-13.76 14.36-12.17-.75-40.27 18.75-7.38 5.58-13.46-2.88-.94.14-21.02-.23-14.56-4.85-40.7 17.65-31.66 33.67-4.95 25.72 5.6 24.38-10.26 9.34 2.47 31.3 5.78 11.14.09.68 5.83 3.75.33.05.39 7.81-.41.36-9.97 8.65-.32-.1-31.79-5.44-8.23 15.42-13.19.09-13.54-7.74-10.59 2.93-.19.03-17.1-.18-.07-.07-5.63-4.7-18.81 8.38.03-18.84-10.72-12.14-12.39-1.48-.01-.01z" /></g></g></svg>