<svg xmlns="http://www.w3.org/2000/svg" xmlns:xlink="http://www.w3.org/1999/xlink" width="406" height="306" class="illustration styles_illustrationTablet__1DWOa" viewBox="0 0 400 300"><defs><path id="reuse-0" fill="#f0fcff" d="m242 48 1-2 6-3V33l-6 4v-1a13 13 0 0 0-2-4l4-8-5-4-4 8a9 9 0 0 0-4 0v-8l-8 5v8a33 33 0 0 0-4 4l-4-3-5 10 4 3-1 2a45 45 0 0 0-1 5l-6 4v10l6-4a13 13 0 0 0 2 5l-5 8 6 4 4-8h4v8l8-5v-7a30 30 0 0 0 4-6l4 3 5-10-4-3v-1l1-4Z"/><path id="reuse-1" fill="#f0fcff" d="m204 135 1-4 12-7v-20l-12 7v-2a27 27 0 0 0-4-8l9-16-11-8-8 16a18 18 0 0 0-9 0V78l-15 8v16a68 68 0 0 0-8 10l-10-6-10 20 8 6-1 4a91 91 0 0 0-2 10l-12 7v21l11-7a26 26 0 0 0 4 10l-9 15 11 8 8-15h10v15l14-9v-15a60 60 0 0 0 9-11l9 6 11-20-9-6 1-3 2-7Z"/></defs><defs><linearGradient id="a" x1="322.6" x2="305.2" y1="199.2" y2="170.1" gradientUnits="userSpaceOnUse"><stop offset="0" stop-color="#fff" stop-opacity="0"/><stop offset="1" stop-color="#ffa86a"/></linearGradient><linearGradient xlink:href="#a" id="b" x1="132.1" x2="114.7" y1="234.8" y2="205.7"/></defs><g data-name="Layer 2" style="isolation:isolate"><path fill="#92add8" d="M364 149 228 70a6 6 0 0 0-6 0L19 186a6 6 0 0 0 0 11l130 75a21 21 0 0 0 21 0l194-112a6 6 0 0 0 0-11Z"/><path fill="url(#a)" d="m349 168-50-29-42 24 27 17 23 14c15-7 28-17 42-26Z" opacity=".6" style="mix-blend-mode:multiply"/><path fill="#4a42a4" d="M336 106v55l-43 25-34-21v-51"/><path fill="#312f89" d="M293 186v-54l-34-21v54l34 21z"/><path fill="#5d5bc4" d="m301 86 35 20-43 26-34-21 42-25z"/><path fill="#7374b7" d="M330 115v12l-32 18v-11l32-19z"/><ellipse cx="301.9" cy="137.4" fill="#f7931e" rx="1.4" ry=".8" transform="rotate(-73 302 137)"/><ellipse cx="304.6" cy="135.8" fill="#d9e021" rx="1.4" ry=".8" transform="rotate(-73 305 136)"/><path fill="none" stroke="#f2f2f2" stroke-miterlimit="10" stroke-width=".3" d="m308 135 19-12"/><path fill="#7374b7" d="M331 131v12l-32 18v-11l32-19z"/><ellipse cx="302.7" cy="153.3" fill="#f7931e" rx="1.4" ry=".8" transform="rotate(-73 303 153)"/><ellipse cx="305.4" cy="151.7" fill="#d9e021" rx="1.4" ry=".8" transform="rotate(-73 304 151)"/><path fill="none" stroke="#f2f2f2" stroke-miterlimit="10" stroke-width=".3" d="m308 150 20-11"/><path fill="#7374b7" d="M331 147v11l-32 19v-12l32-18z"/><ellipse cx="302.7" cy="169.1" fill="#f7931e" rx="1.4" ry=".8" transform="rotate(-73 303 169)"/><ellipse cx="305.4" cy="167.5" fill="#d9e021" rx="1.4" ry=".8" transform="rotate(-73 305 168)"/><path fill="none" stroke="#f2f2f2" stroke-miterlimit="10" stroke-width=".3" d="m308 166 20-11"/><path fill="none" stroke="#1b1464" stroke-miterlimit="10" stroke-width=".3" d="m259 130 34 20 43-24"/><path fill="none" stroke="#1b1464" stroke-miterlimit="10" stroke-width=".3" d="m259 146 34 20 43-24"/><path fill="#f0fcff" d="m215 79 1 2h3l5-7v-2h-5"/><use xlink:href="#reuse-0"/><path fill="#f0fcff" d="m256 37-7-4-1 3 2 5M247 71l-5-2v-3M232 85l-8-4 2-6 7 2-1 8zM240 20l7 4-4 8h-4l-1-8 2-4z"/><ellipse cx="235.6" cy="54.6" fill="#f0fcff" rx="5.6" ry="3.3" transform="rotate(-69 236 55)"/><path fill="#f0fcff" d="m224 25 7 4 8-4-7-5-8 5zM223 38l-7-4-5 10 7 4 5-10zM210 77l7 4 6 4-7-4-6-4z"/><path fill="#053855" d="m215 79 1 2h3l5-7v-2h-5" opacity=".4"/><use xlink:href="#reuse-0"/><path fill="#053855" d="m256 37-7-4-1 3 2 5" opacity=".4"/><path fill="#f0fcff" d="m247 71-5-2v-3M232 85l-8-4 2-6 7 2-1 8zM240 20l7 4-4 8h-4l-1-8 2-4z"/><ellipse cx="235.6" cy="54.6" fill="#f0fcff" rx="5.6" ry="3.3" transform="rotate(-69 236 55)"/><path fill="#f0fcff" d="m223 38-7-4-5 10 7 4 5-10zM210 77l7 4 6 4-7-4-6-4z"/><path fill="#053855" d="m242 48 1-2 6-3V33l-6 4v-1a13 13 0 0 0-2-4l4-8-5-4-4 8a9 9 0 0 0-4 0v-8l-8 5v8a33 33 0 0 0-4 4l-4-3-5 10 4 3-1 2a45 45 0 0 0-1 5l-6 4v10l6-4a13 13 0 0 0 2 5l-5 8 6 4 4-8h4v8l8-5v-7a30 30 0 0 0 4-6l4 3 5-10-4-3v-1l1-4Z" opacity=".4"/><path fill="#053855" d="m247 71-5-2v-3M232 85l-8-4 2-6 7 2-1 8z" opacity=".1"/><ellipse cx="235.6" cy="54.6" fill="#053855" opacity=".1" rx="5.6" ry="3.3" transform="rotate(-69 236 55)"/><path fill="#053855" d="m223 38-7-4-5 10 7 4 5-10zM210 77l7 4 6 4-7-4-6-4zM247 71l-5-2v-3" opacity=".1"/><path fill="#053855" d="m232 85-8-4 2-6 7 2-1 8z" opacity=".4"/><path fill="#f0fcff" d="M250 53v-2l6-4V37l-6 4v-1a13 13 0 0 0-2-4l5-8-6-4-4 8a9 9 0 0 0-4 0v-7l-8 4v8a33 33 0 0 0-4 4l-4-3-5 10 4 3-1 2a45 45 0 0 0-1 5l-6 4v10l6-4a13 13 0 0 0 2 5l-4 8 5 4 4-8h5v8l7-5v-7a30 30 0 0 0 4-5l4 3 6-10-5-4 1-1 1-3Z"/><ellipse cx="235.6" cy="54.6" fill="#053855" opacity=".4" rx="5.6" ry="3.3" transform="rotate(-69 236 55)"/><path fill="#053855" d="m210 77 7 4 6 4-7-4-6-4z" opacity=".4"/><path fill="#f0fcff" d="m224 25 7 4 8-4-7-5-8 5z"/><path fill="#053855" d="m224 25 7 4 8-4-7-5-8 5z" opacity=".4"/><path fill="#f0fcff" d="m207 58 7 4v10l-7-4V58z"/><path fill="#053855" d="m207 58 7 4v10l-7-4V58z" opacity=".4"/><path fill="#adcee1" d="M326 103v1h-1"/><path fill="#88d3d8" d="m304 89 21 14a1 1 0 0 1 0 2l-32 18a3 3 0 0 1-3 0l-21-12c-2-1-1-4 0-4l32-18a3 3 0 0 1 3 0Z"/><path fill="#fff" d="m304 89 21 13a1 1 0 0 1 0 2l-32 18a3 3 0 0 1-3 0l-21-12a2 2 0 0 1 0-3l32-18a3 3 0 0 1 3 0Z"/><path fill="#053855" d="m303 87-9-29h-2l-33 20s-2 1-2 2l9 28a1 1 0 0 0 2 0l34-20a1 1 0 0 0 1-1Z"/><path fill="#f0fcff" d="m294 60-35 21 7 24 35-20-7-25zM305 92l8 4a1 1 0 0 1 0 2l-28 16a3 3 0 0 1-2 0l-7-4a1 1 0 0 1 0-2l28-16a2 2 0 0 1 1 0ZM305 105l-10 5a1 1 0 0 0 0 2l6 3a1 1 0 0 0 1 0l10-5a1 1 0 0 0 0-2l-6-3a1 1 0 0 0-1 0Z"/><path fill="#053855" d="m305 92 8 4a1 1 0 0 1 0 2l-28 16a3 3 0 0 1-2 0l-7-4a1 1 0 0 1 0-2l28-16a2 2 0 0 1 1 0ZM305 105l-10 5a1 1 0 0 0 0 2l6 3a1 1 0 0 0 1 0l10-5a1 1 0 0 0 0-2l-6-3a1 1 0 0 0-1 0Z" opacity=".1"/><path fill="none" stroke="#42210b" stroke-miterlimit="10" d="m91 196 78 45 111-64M188 181v48"/><path fill="#f0fcff" d="M149 197s1 4 2 3 5 1 5 1l11-14-2-5h-10"/><use xlink:href="#reuse-1"/><path fill="#f0fcff" d="m232 112-14-8-3 5 5 11M214 180l-10-4v-6M182 209l-15-9 4-11 13 4-2 16zM199 77l15 8-8 17h-9l-2-17 4-8z"/><ellipse cx="189.9" cy="147.2" fill="#f0fcff" rx="11.4" ry="6.6" transform="rotate(-69 190 147)"/><path fill="#f0fcff" d="m167 86 14 9 16-9-15-8-15 8zM164 114l-15-8-10 20 15 8 10-20zM138 192l15 8 11 9-15-9-11-8z"/><path fill="#053855" d="M149 197s1 4 2 3 5 1 5 1l11-14-2-5h-10" opacity=".4"/><use xlink:href="#reuse-1"/><path fill="#053855" d="m232 112-14-8-3 5 5 11" opacity=".4"/><path fill="#f0fcff" d="m214 180-10-4v-6M182 209l-15-9 4-11 13 4-2 16zM199 77l15 8-8 17h-9l-2-17 4-8z"/><ellipse cx="189.9" cy="147.2" fill="#f0fcff" rx="11.4" ry="6.6" transform="rotate(-69 190 147)"/><path fill="#f0fcff" d="m164 114-15-8-10 20 15 8 10-20zM138 192l15 8 11 9-15-9-11-8z"/><path fill="#053855" d="m204 135 1-4 12-7v-20l-12 7v-2a27 27 0 0 0-4-8l9-16-11-8-8 16a18 18 0 0 0-9 0V78l-15 8v16a68 68 0 0 0-8 10l-10-6-10 20 8 6-1 4a91 91 0 0 0-2 10l-12 7v21l11-7a26 26 0 0 0 4 10l-9 15 11 8 8-15h10v15l14-9v-15a60 60 0 0 0 9-11l9 6 11-20-9-6 1-3 2-7Z" opacity=".4"/><path fill="#053855" d="m214 180-10-4v-6M182 209l-15-9 4-11 13 4-2 16z" opacity=".1"/><ellipse cx="189.9" cy="147.2" fill="#053855" opacity=".1" rx="11.4" ry="6.6" transform="rotate(-69 190 147)"/><path fill="#053855" d="m164 114-15-8-10 20 15 8 10-20zM138 192l15 8 11 9-15-9-11-8zM214 180l-10-4v-6" opacity=".1"/><path fill="#053855" d="m182 209-15-9 4-11 13 4-2 16z" opacity=".4"/><path fill="#f0fcff" d="m219 143 1-4 12-6v-21l-12 7-1-1a27 27 0 0 0-3-9l8-15-10-9-8 16a18 18 0 0 0-9 1V86l-16 9v16a68 68 0 0 0-8 9l-9-6-10 20 8 7-1 3a91 91 0 0 0-2 11l-13 7v20l12-7a26 26 0 0 0 4 10l-9 15 11 9 8-16h10v16l14-9v-15a60 60 0 0 0 9-11l9 6 11-20-9-7 1-3 2-7Z"/><ellipse cx="189.9" cy="147.2" fill="#053855" opacity=".4" rx="11.4" ry="6.6" transform="rotate(-69 190 147)"/><path fill="#053855" d="m138 192 15 8 11 9-15-9-11-8z" opacity=".4"/><path fill="#f0fcff" d="m167 86 14 9 16-9-15-8-15 8z"/><path fill="#053855" d="m167 86 14 9 16-9-15-8-15 8z" opacity=".4"/><path fill="#f0fcff" d="m132 153 14 9v20l-14-8v-21z"/><path fill="#053855" d="m132 153 14 9v20l-14-8v-21z" opacity=".4"/><path fill="url(#b)" d="m86 220 50 31c14-7 28-14 45-27-24-12-65-36-80-45l-42 24 27 17Z" opacity=".6" style="mix-blend-mode:multiply"/><path fill="#c65b46" d="M113 84 94 74l-45 26v98l19 11"/><path fill="#ea6647" d="M68 209v-99l45-26v99Z"/><path fill="none" stroke="#f2f2f2" stroke-miterlimit="10" stroke-width=".3" d="m113 102-45 26-19-10M113 128l-45 25-19-9M113 151l-45 25-19-9M113 174l-45 26-19-10"/><path fill="#f99d8c" d="m68 110-19-10 45-26 19 10-45 26z"/><ellipse cx="76.4" cy="113.3" fill="#fff" rx="3.3" ry="2.8" transform="rotate(-68 76 113)"/><path fill="#f2f2f2" d="m107 96-24 14h1l24-13-1-1Z"/><ellipse cx="76.4" cy="135.6" fill="#fff" rx="3.3" ry="2.8" transform="rotate(-68 76 136)"/><path fill="#f2f2f2" d="m107 119-24 13 1 1 24-14h-1Z"/><ellipse cx="76.4" cy="160" fill="#fff" rx="3.3" ry="2.8" transform="rotate(-68 76 160)"/><path fill="#f2f2f2" d="m107 143-24 13 1 1 24-13-1-1Z"/><ellipse cx="76.4" cy="182.1" fill="#fff" rx="3.3" ry="2.8" transform="rotate(-68 76 182)"/><path fill="#f2f2f2" d="m107 165-24 14h1l24-13-1-1Z"/></g></svg>